<svg xmlns="http://www.w3.org/2000/svg" width="16" height="32"><g data-name="그룹 22"><g data-name="심볼 6 – 109"><g data-name="그룹 8"><path data-name="패스 1" d="M13.092 3.909a3.109 3.109 0 0 0-4.392 0l-.7.7-.7-.7a3.109 3.109 0 0 0-4.392 0 3.109 3.109 0 0 0 0 4.392l4.725 4.725c.009.011.016.022.026.032a.477.477 0 0 0 .675 0l4.757-4.757a3.109 3.109 0 0 0 .001-4.392Zm-.675 3.717L8 12.04 3.583 7.623a2.151 2.151 0 0 1 3.042-3.042l1.036 1.036a.476.476 0 0 0 .338.14.476.476 0 0 0 .338-.14L9.374 4.58a2.151 2.151 0 0 1 3.042 3.042Z" fill="#c80a1e"/></g></g><g data-name="그룹 21"><g data-name="그룹 8"><path data-name="패스 1" d="M13.092 19.909a3.109 3.109 0 0 0-4.392 0l-.7.7-.7-.7a3.109 3.109 0 0 0-4.392 0 3.109 3.109 0 0 0 0 4.392l4.725 4.725c.009.011.016.022.026.032a.477.477 0 0 0 .675 0l4.757-4.757a3.109 3.109 0 0 0 .001-4.392Z" fill="#c80a1e"/></g></g></g></svg>